<svg xmlns="http://www.w3.org/2000/svg" viewBox="0 0 200 200">
  
  <ellipse cx="78" cy="180" rx="16" ry="8" fill="#9C6630" stroke="#2D2A26" stroke-width="2.5"></ellipse>
  <ellipse cx="122" cy="180" rx="16" ry="8" fill="#9C6630" stroke="#2D2A26" stroke-width="2.5"></ellipse>
  
  <ellipse cx="78" cy="180" rx="8" ry="4" fill="#E8DCC4"></ellipse>
  <ellipse cx="122" cy="180" rx="8" ry="4" fill="#E8DCC4"></ellipse>
  
  <ellipse cx="100" cy="140" rx="52" ry="46" fill="#9C6630" stroke="#2D2A26" stroke-width="2.5"></ellipse>
  
  <ellipse cx="100" cy="152" rx="28" ry="22" fill="#E8DCC4"></ellipse>
  
  <circle cx="68" cy="55" r="13" fill="#9C6630" stroke="#2D2A26" stroke-width="2.5"></circle>
  <circle cx="132" cy="55" r="13" fill="#9C6630" stroke="#2D2A26" stroke-width="2.5"></circle>
  <circle cx="68" cy="57" r="7" fill="#E8DCC4"></circle>
  <circle cx="132" cy="57" r="7" fill="#E8DCC4"></circle>
  
  <circle cx="100" cy="80" r="42" fill="#9C6630" stroke="#2D2A26" stroke-width="2.5"></circle>
  
  <ellipse cx="100" cy="96" rx="20" ry="14" fill="#E8DCC4"></ellipse>
  
  <ellipse cx="70" cy="92" rx="7" ry="3.5" fill="#F4B5B5"></ellipse>
  <ellipse cx="130" cy="92" rx="7" ry="3.5" fill="#F4B5B5"></ellipse>
  
  <ellipse cx="86" cy="76" rx="3.5" ry="5.5" fill="#2D2A26"></ellipse>
  <ellipse cx="114" cy="76" rx="3.5" ry="5.5" fill="#2D2A26"></ellipse>
  <circle cx="87" cy="74" r="1.3" fill="#FAF1E1"></circle>
  <circle cx="115" cy="74" r="1.3" fill="#FAF1E1"></circle>
  
  <ellipse cx="100" cy="92" rx="5" ry="4" fill="#2D2A26"></ellipse>
  
  <path d="M100 96 L100 100 M100 100 Q96 104 92 102 M100 100 Q104 104 108 102" fill="none" stroke="#2D2A26" stroke-width="2" stroke-linecap="round"></path>
</svg>