<svg xmlns="http://www.w3.org/2000/svg" viewBox="0 0 200 200">
  
  <ellipse cx="78" cy="180" rx="16" ry="8" fill="#9C6630" stroke="#2D2A26" stroke-width="2.5"></ellipse>
  <ellipse cx="122" cy="180" rx="16" ry="8" fill="#9C6630" stroke="#2D2A26" stroke-width="2.5"></ellipse>
  <ellipse cx="78" cy="180" rx="8" ry="4" fill="#E8DCC4"></ellipse>
  <ellipse cx="122" cy="180" rx="8" ry="4" fill="#E8DCC4"></ellipse>
  
  <ellipse cx="100" cy="140" rx="52" ry="46" fill="#9C6630" stroke="#2D2A26" stroke-width="2.5"></ellipse>
  
  <ellipse cx="48" cy="104" rx="11" ry="13" fill="#9C6630" stroke="#2D2A26" stroke-width="2.5" transform="rotate(-30 48 104)"></ellipse>
  <ellipse cx="152" cy="104" rx="11" ry="13" fill="#9C6630" stroke="#2D2A26" stroke-width="2.5" transform="rotate(30 152 104)"></ellipse>
  <ellipse cx="44" cy="98" rx="6" ry="3" fill="#E8DCC4" transform="rotate(-30 44 98)"></ellipse>
  <ellipse cx="156" cy="98" rx="6" ry="3" fill="#E8DCC4" transform="rotate(30 156 98)"></ellipse>
  
  <ellipse cx="100" cy="152" rx="28" ry="22" fill="#E8DCC4"></ellipse>
  
  <circle cx="68" cy="55" r="13" fill="#9C6630" stroke="#2D2A26" stroke-width="2.5"></circle>
  <circle cx="132" cy="55" r="13" fill="#9C6630" stroke="#2D2A26" stroke-width="2.5"></circle>
  <circle cx="68" cy="57" r="7" fill="#E8DCC4"></circle>
  <circle cx="132" cy="57" r="7" fill="#E8DCC4"></circle>
  
  <circle cx="100" cy="80" r="42" fill="#9C6630" stroke="#2D2A26" stroke-width="2.5"></circle>
  
  <ellipse cx="100" cy="96" rx="20" ry="14" fill="#E8DCC4"></ellipse>
  
  <ellipse cx="70" cy="92" rx="8" ry="4" fill="#F4B5B5"></ellipse>
  <ellipse cx="130" cy="92" rx="8" ry="4" fill="#F4B5B5"></ellipse>
  
  <path d="M80 76 Q86 69 92 76" fill="none" stroke="#2D2A26" stroke-width="2.5" stroke-linecap="round"></path>
  <path d="M108 76 Q114 69 120 76" fill="none" stroke="#2D2A26" stroke-width="2.5" stroke-linecap="round"></path>
  
  <ellipse cx="100" cy="92" rx="5" ry="4" fill="#2D2A26"></ellipse>
  
  <path d="M90 100 L110 100 Q100 112 90 100 Z" fill="#E8836A" stroke="#2D2A26" stroke-width="2" stroke-linejoin="round"></path>
</svg>