<svg xmlns="http://www.w3.org/2000/svg" viewBox="0 0 200 200">
  
  <ellipse cx="85" cy="40" rx="9" ry="28" fill="#E8DCC4" stroke="#2D2A26" stroke-width="2.5"></ellipse>
  <ellipse cx="115" cy="40" rx="9" ry="28" fill="#E8DCC4" stroke="#2D2A26" stroke-width="2.5"></ellipse>
  
  <ellipse cx="85" cy="44" rx="4" ry="20" fill="#F4B5B5"></ellipse>
  <ellipse cx="115" cy="44" rx="4" ry="20" fill="#F4B5B5"></ellipse>
  
  <ellipse cx="78" cy="180" rx="16" ry="8" fill="#E8DCC4" stroke="#2D2A26" stroke-width="2.5"></ellipse>
  <ellipse cx="122" cy="180" rx="16" ry="8" fill="#E8DCC4" stroke="#2D2A26" stroke-width="2.5"></ellipse>
  
  <ellipse cx="100" cy="140" rx="48" ry="44" fill="#E8DCC4" stroke="#2D2A26" stroke-width="2.5"></ellipse>
  
  <ellipse cx="100" cy="152" rx="24" ry="20" fill="#FAF1E1"></ellipse>
  
  <circle cx="148" cy="148" r="9" fill="#FAF1E1" stroke="#2D2A26" stroke-width="2.5"></circle>
  
  <circle cx="100" cy="92" r="38" fill="#E8DCC4" stroke="#2D2A26" stroke-width="2.5"></circle>
  
  <ellipse cx="74" cy="102" rx="7" ry="3.5" fill="#F4B5B5"></ellipse>
  <ellipse cx="126" cy="102" rx="7" ry="3.5" fill="#F4B5B5"></ellipse>
  
  <ellipse cx="86" cy="88" rx="3.5" ry="5.5" fill="#2D2A26"></ellipse>
  <ellipse cx="114" cy="88" rx="3.5" ry="5.5" fill="#2D2A26"></ellipse>
  <circle cx="87" cy="86" r="1.3" fill="#FAF1E1"></circle>
  <circle cx="115" cy="86" r="1.3" fill="#FAF1E1"></circle>
  
  <path d="M96 101 L104 101 L100 106 Z" fill="#F4B5B5" stroke="#2D2A26" stroke-width="1.5" stroke-linejoin="round"></path>
  
  <path d="M100 106 L100 110 M100 110 Q96 113 93 111 M100 110 Q104 113 107 111" fill="none" stroke="#2D2A26" stroke-width="2" stroke-linecap="round"></path>
  
  <rect x="97" y="112" width="6" height="5" rx="1" fill="#FAF1E1" stroke="#2D2A26" stroke-width="1.5"></rect>
  <line x1="100" y1="112" x2="100" y2="117" stroke="#2D2A26" stroke-width="1"></line>
</svg>