<svg xmlns="http://www.w3.org/2000/svg" viewBox="0 0 200 200">

  <path d="M150 138 Q185 118 178 86 Q175 74 186 70" fill="none" stroke="#2D2A26" stroke-width="2.5" stroke-linecap="round"></path>

  <ellipse cx="82" cy="178" rx="14" ry="7" fill="#E8923C" stroke="#2D2A26" stroke-width="2.5"></ellipse>
  <ellipse cx="118" cy="178" rx="14" ry="7" fill="#E8923C" stroke="#2D2A26" stroke-width="2.5"></ellipse>

  <ellipse cx="100" cy="138" rx="50" ry="45" fill="#E8923C" stroke="#2D2A26" stroke-width="2.5"></ellipse>

  <ellipse cx="50" cy="106" rx="10" ry="13" fill="#E8923C" stroke="#2D2A26" stroke-width="2.5" transform="rotate(-30 50 106)"></ellipse>
  <ellipse cx="150" cy="106" rx="10" ry="13" fill="#E8923C" stroke="#2D2A26" stroke-width="2.5" transform="rotate(30 150 106)"></ellipse>

  <ellipse cx="100" cy="150" rx="26" ry="22" fill="#FAF1E1"></ellipse>

  <polygon points="63,55 80,25 90,58" fill="#E8923C" stroke="#2D2A26" stroke-width="2.5" stroke-linejoin="round"></polygon>
  <polygon points="137,55 120,25 110,58" fill="#E8923C" stroke="#2D2A26" stroke-width="2.5" stroke-linejoin="round"></polygon>
  <polygon points="73,52 80,38 86,54" fill="#F4B5B5"></polygon>
  <polygon points="127,52 120,38 114,54" fill="#F4B5B5"></polygon>

  <circle cx="100" cy="82" r="40" fill="#E8923C" stroke="#2D2A26" stroke-width="2.5"></circle>

  <ellipse cx="74" cy="95" rx="8" ry="4" fill="#F4B5B5"></ellipse>
  <ellipse cx="126" cy="95" rx="8" ry="4" fill="#F4B5B5"></ellipse>

  <path d="M80 80 Q86 73 92 80" fill="none" stroke="#2D2A26" stroke-width="2.5" stroke-linecap="round"></path>
  <path d="M108 80 Q114 73 120 80" fill="none" stroke="#2D2A26" stroke-width="2.5" stroke-linecap="round"></path>

  <path d="M96 93 L104 93 L100 98 Z" fill="#E8836A" stroke="#2D2A26" stroke-width="1.5" stroke-linejoin="round"></path>

  <path d="M88 100 L112 100 Q100 114 88 100 Z" fill="#E8836A" stroke="#2D2A26" stroke-width="2" stroke-linejoin="round"></path>

  <path d="M68 95 L58 92 M68 98 L58 100 M132 95 L142 92 M132 98 L142 100" stroke="#2D2A26" stroke-width="1.5" stroke-linecap="round"></path>
</svg>
