<svg xmlns="http://www.w3.org/2000/svg" viewBox="0 0 200 200">

  <path d="M150 148 Q182 132 174 100 Q172 90 180 84" fill="none" stroke="#2D2A26" stroke-width="2.5" stroke-linecap="round"></path>

  <ellipse cx="82" cy="178" rx="14" ry="7" fill="#E8923C" stroke="#2D2A26" stroke-width="2.5"></ellipse>
  <ellipse cx="118" cy="178" rx="14" ry="7" fill="#E8923C" stroke="#2D2A26" stroke-width="2.5"></ellipse>

  <ellipse cx="100" cy="138" rx="50" ry="45" fill="#E8923C" stroke="#2D2A26" stroke-width="2.5"></ellipse>

  <ellipse cx="100" cy="150" rx="26" ry="22" fill="#FAF1E1"></ellipse>

  <polygon points="63,58 80,30 90,60" fill="#E8923C" stroke="#2D2A26" stroke-width="2.5" stroke-linejoin="round"></polygon>
  <polygon points="137,58 120,30 110,60" fill="#E8923C" stroke="#2D2A26" stroke-width="2.5" stroke-linejoin="round"></polygon>
  <polygon points="73,55 80,42 86,57" fill="#F4B5B5"></polygon>
  <polygon points="127,55 120,42 114,57" fill="#F4B5B5"></polygon>

  <circle cx="100" cy="82" r="40" fill="#E8923C" stroke="#2D2A26" stroke-width="2.5"></circle>

  <ellipse cx="74" cy="94" rx="7" ry="3.5" fill="#F4B5B5"></ellipse>
  <ellipse cx="126" cy="94" rx="7" ry="3.5" fill="#F4B5B5"></ellipse>

  <ellipse cx="86" cy="80" rx="3.5" ry="5.5" fill="#2D2A26"></ellipse>
  <ellipse cx="114" cy="80" rx="3.5" ry="5.5" fill="#2D2A26"></ellipse>
  <circle cx="87" cy="78" r="1.3" fill="#FAF1E1"></circle>
  <circle cx="115" cy="78" r="1.3" fill="#FAF1E1"></circle>

  <path d="M96 93 L104 93 L100 98 Z" fill="#E8836A" stroke="#2D2A26" stroke-width="1.5" stroke-linejoin="round"></path>

  <path d="M100 98 Q96 103 92 101 M100 98 Q104 103 108 101" fill="none" stroke="#2D2A26" stroke-width="2" stroke-linecap="round"></path>

  <path d="M68 96 L58 94 M68 99 L58 102 M132 96 L142 94 M132 99 L142 102" stroke="#2D2A26" stroke-width="1.5" stroke-linecap="round"></path>
</svg>
