<svg xmlns="http://www.w3.org/2000/svg" viewBox="0 0 200 200">
  
  <ellipse cx="58" cy="160" rx="14" ry="10" fill="#86C775" stroke="#2D2A26" stroke-width="2.5" transform="rotate(-15 58 160)"></ellipse>
  <ellipse cx="142" cy="160" rx="14" ry="10" fill="#86C775" stroke="#2D2A26" stroke-width="2.5" transform="rotate(15 142 160)"></ellipse>
  
  <ellipse cx="78" cy="180" rx="12" ry="7" fill="#86C775" stroke="#2D2A26" stroke-width="2.5"></ellipse>
  <ellipse cx="122" cy="180" rx="12" ry="7" fill="#86C775" stroke="#2D2A26" stroke-width="2.5"></ellipse>
  
  <circle cx="71" cy="180" r="2" fill="#2D2A26"></circle>
  <circle cx="78" cy="183" r="2" fill="#2D2A26"></circle>
  <circle cx="85" cy="180" r="2" fill="#2D2A26"></circle>
  <circle cx="115" cy="180" r="2" fill="#2D2A26"></circle>
  <circle cx="122" cy="183" r="2" fill="#2D2A26"></circle>
  <circle cx="129" cy="180" r="2" fill="#2D2A26"></circle>
  
  <ellipse cx="100" cy="120" rx="60" ry="55" fill="#86C775" stroke="#2D2A26" stroke-width="2.5"></ellipse>
  
  <ellipse cx="100" cy="148" rx="36" ry="26" fill="#FAF1E1"></ellipse>
  
  <circle cx="74" cy="72" r="18" fill="#86C775" stroke="#2D2A26" stroke-width="2.5"></circle>
  <circle cx="126" cy="72" r="18" fill="#86C775" stroke="#2D2A26" stroke-width="2.5"></circle>
  
  <circle cx="74" cy="72" r="12" fill="#FAF1E1" stroke="#2D2A26" stroke-width="2"></circle>
  <circle cx="126" cy="72" r="12" fill="#FAF1E1" stroke="#2D2A26" stroke-width="2"></circle>
  
  <ellipse cx="74" cy="74" rx="4.5" ry="6" fill="#2D2A26"></ellipse>
  <ellipse cx="126" cy="74" rx="4.5" ry="6" fill="#2D2A26"></ellipse>
  <circle cx="75" cy="72" r="1.5" fill="#FAF1E1"></circle>
  <circle cx="127" cy="72" r="1.5" fill="#FAF1E1"></circle>
  
  <ellipse cx="64" cy="108" rx="7" ry="3.5" fill="#F4B5B5"></ellipse>
  <ellipse cx="136" cy="108" rx="7" ry="3.5" fill="#F4B5B5"></ellipse>
  
  <path d="M65 110 Q100 130 135 110" fill="none" stroke="#2D2A26" stroke-width="2.5" stroke-linecap="round"></path>
  
  <circle cx="65" cy="110" r="1.5" fill="#2D2A26"></circle>
  <circle cx="135" cy="110" r="1.5" fill="#2D2A26"></circle>
  
  <circle cx="94" cy="100" r="1.5" fill="#2D2A26"></circle>
  <circle cx="106" cy="100" r="1.5" fill="#2D2A26"></circle>
</svg>